<svg width="132" height="130" viewBox="0 0 132 130" fill="none" xmlns="http://www.w3.org/2000/svg">
<mask id="path-1-inside-1_1_31" fill="white">
<path d="M119.856 70C119.856 103.137 92.9933 130 59.8562 130L59.8562 70H119.856Z"/>
</mask>
<path d="M119.856 70C119.856 103.137 92.9933 130 59.8562 130L59.8562 70H119.856Z" fill="#D4D748"/>
<path d="M127.856 70C127.856 107.555 97.4116 138 59.8562 138V122C88.5751 122 111.856 98.7188 111.856 70H127.856ZM59.8562 130L59.8562 70L59.8562 130ZM59.8562 70H119.856H59.8562ZM127.856 70C127.856 107.555 97.4116 138 59.8562 138V122C88.5751 122 111.856 98.7188 111.856 70H127.856Z" fill="#AE7929" mask="url(#path-1-inside-1_1_31)"/>
<mask id="path-3-inside-2_1_31" fill="white">
<path d="M60 130.072C26.8629 130.072 0 103.209 0 70.0717C0 36.9347 26.8629 10.0717 60 10.0717L60 130.072Z"/>
</mask>
<path d="M60 130.072C26.8629 130.072 0 103.209 0 70.0717C0 36.9347 26.8629 10.0717 60 10.0717L60 130.072Z" fill="#D4D748"/>
<path d="M60 138.072C22.4446 138.072 -8 107.627 -8 70.0717C-8 32.5164 22.4446 2.07175 60 2.07175V18.0717C31.2812 18.0717 8 41.3529 8 70.0717C8 98.7906 31.2812 122.072 60 122.072V138.072ZM60 10.0717L60 130.072L60 10.0717ZM60 138.072C22.4446 138.072 -8 107.627 -8 70.0717H8C8 98.7906 31.2812 122.072 60 122.072V138.072ZM-8 70.0717C-8 32.5164 22.4446 2.07175 60 2.07175V18.0717C31.2812 18.0717 8 41.3529 8 70.0717H-8Z" fill="#AE7929" mask="url(#path-3-inside-2_1_31)"/>
<circle cx="36.3562" cy="45.5" r="6.5" fill="#DA2C2C"/>
<circle cx="29.3562" cy="76.5" r="6.5" fill="#DA2C2C"/>
<circle cx="60.3562" cy="82.5" r="6.5" fill="#DA2C2C"/>
<circle cx="49.3562" cy="106.5" r="6.5" fill="#DA2C2C"/>
<circle cx="90.3562" cy="95.5" r="6.5" fill="#DA2C2C"/>
<mask id="path-10-inside-3_1_31" fill="white">
<path d="M71.8562 0C104.993 0 131.856 26.8629 131.856 60H71.8562V0Z"/>
</mask>
<path d="M71.8562 0C104.993 0 131.856 26.8629 131.856 60H71.8562V0Z" fill="#D4D748"/>
<path d="M71.8562 -8C109.412 -8 139.856 22.4446 139.856 60H123.856C123.856 31.2812 100.575 8 71.8562 8V-8ZM131.856 60H71.8562H131.856ZM71.8562 60V0V60ZM71.8562 -8C109.412 -8 139.856 22.4446 139.856 60H123.856C123.856 31.2812 100.575 8 71.8562 8V-8Z" fill="#AE7929" mask="url(#path-10-inside-3_1_31)"/>
<circle cx="95.3562" cy="52.5" r="6.5" fill="#DA2C2C"/>
<circle cx="85.3562" cy="27.5" r="6.5" fill="#DA2C2C"/>
</svg>
